<svg width="78" height="12" viewBox="0 0 78 12" fill="none" xmlns="http://www.w3.org/2000/svg">
<path d="M64.0391 3.50661C64.8048 3.24207 66.2391 3.29276 67.0146 3.60817C68.2515 4.09663 69.0761 5.32856 69.2725 6.96657C69.3215 7.4341 69.3506 7.88119 69.3213 7.9529C69.282 8.06482 68.6734 8.09548 66.1211 8.09548C63.7658 8.09548 62.9801 8.12606 62.9795 8.21755C62.9795 8.2786 63.0484 8.59411 63.1367 8.9197C63.4509 10.0795 64.1967 10.6394 65.4141 10.6394C66.4545 10.6394 67.1026 10.3036 67.4658 9.59157C67.6033 9.29651 67.6135 9.29574 68.3105 9.36696C68.703 9.40765 69.0465 9.46886 69.0859 9.50954C69.2037 9.62144 68.8009 10.4048 68.3887 10.8728C66.9455 12.4906 63.539 12.3383 62.2529 10.5984C62.1057 10.395 61.8699 9.96792 61.7227 9.64235C61.4772 9.1031 61.457 8.97027 61.457 7.68825C61.4571 6.06062 61.634 5.48047 62.3506 4.64626C62.8708 4.04605 63.2932 3.76095 64.0391 3.50661ZM48.7734 10.782C48.8618 9.8968 49.6473 9.46876 50.4131 9.87575C50.7763 10.069 50.9033 10.3136 50.9033 10.8425C50.9033 11.3715 50.7762 11.616 50.4131 11.8093C49.9124 12.0739 49.4601 12.0132 49.0674 11.6062C48.7435 11.2706 48.7244 11.2091 48.7734 10.782ZM59.7393 11.8699L59.0322 11.8396L58.3164 11.8093L58.2861 11.3006C58.2469 10.4968 58.198 10.4566 57.8643 10.9246C57.6679 11.2093 57.3634 11.4532 56.9414 11.6668C56.3425 11.972 56.2636 11.9819 55.3506 11.9412C54.5165 11.9107 54.3197 11.8605 53.8682 11.6062C52.5135 10.8431 51.9048 9.41788 52.0029 7.25075C52.0913 5.43982 52.6908 4.33077 53.918 3.69997C54.5362 3.38469 54.6447 3.36403 55.5674 3.36403C56.7059 3.37424 57.1676 3.55756 57.8057 4.25954L58.1689 4.66677V2.47927C58.1689 1.27865 58.198 0.260769 58.2373 0.230245C58.2674 0.189624 58.6205 0.158972 59.0225 0.158956H59.7393V11.8699ZM42.5098 3.44607C43.1381 3.28327 44.8173 3.33396 45.3867 3.54763C46.054 3.7918 46.5346 4.1988 46.8389 4.76833L47.124 5.29763L47.1924 8.2986C47.2317 9.94691 47.2812 11.413 47.291 11.5554C47.3204 11.7991 47.2998 11.8091 46.6621 11.8396C45.9262 11.8701 45.8776 11.8291 45.75 11.0662C45.7108 10.8327 45.6515 10.6402 45.6025 10.6394C45.5633 10.6394 45.4158 10.7922 45.2783 10.9754C45.1506 11.1585 44.7973 11.4435 44.5127 11.6062C44.0121 11.9012 43.9235 11.9109 42.8047 11.9109C41.7837 11.9109 41.577 11.8806 41.2334 11.6873C39.4958 10.7207 39.4959 8.30971 41.2334 7.40407C41.7243 7.14971 42.4019 7.00705 43.7861 6.87478C44.385 6.81373 45.033 6.71178 45.249 6.66091L45.6221 6.55935L45.583 6.05056C45.5241 5.47071 45.2785 5.06349 44.8564 4.83962C44.4835 4.64634 43.2565 4.58556 42.8145 4.73806C42.3629 4.89067 41.9107 5.35843 41.8223 5.7654C41.7634 6.02974 41.7244 6.07097 41.499 6.02028C41.3518 5.98976 40.9975 5.9385 40.7227 5.90798C40.2223 5.8368 40.2028 5.82636 40.2617 5.57204C40.5072 4.53435 41.3122 3.77165 42.5098 3.44607ZM24.5928 11.8699L23.8369 11.8396L23.0713 11.8093L23.042 7.65798L23.0225 3.51735H24.5928V11.8699ZM77.1855 3.51735C77.6272 3.51737 78 3.53762 78 3.56814C77.9948 3.70329 74.937 11.6063 74.8389 11.7283C74.7006 11.9112 73.1511 11.9112 73.0225 11.7283C72.9439 11.6367 70.2738 4.76947 69.8906 3.69021C69.8317 3.52744 69.9006 3.50639 70.6855 3.53689L71.54 3.56814L72.708 6.80349C73.3461 8.59424 73.8866 10.0698 73.916 10.1004C73.9747 10.1611 73.9856 10.1276 74.6621 8.24782C74.9174 7.51526 75.4084 6.16266 75.7422 5.21657L76.3604 3.51735H77.1855ZM8.97363 10.8631L11.9775 10.8933L12.0654 11.1687C12.1439 11.3924 12.1247 11.4943 11.9775 11.657C11.8107 11.8502 11.6918 11.8601 8.96289 11.8601C7.19601 11.8601 6.04749 11.8196 5.92969 11.7586C5.71371 11.6365 5.6748 11.1579 5.86133 10.9646C5.95083 10.8732 6.72744 10.8427 8.97363 10.8631ZM20.9111 0.688253C20.9406 0.983315 20.9601 3.60842 20.9404 6.51833L20.9111 11.8093L20.1846 11.8396C19.6938 11.86 19.429 11.8292 19.3799 11.7478C19.2916 11.5826 19.2623 0.789675 19.3506 0.423605C19.4094 0.169506 19.439 0.158956 20.126 0.158956H20.8525L20.9111 0.688253ZM0.274414 0.301534C0.618026 -0.00370681 0.913068 -0.00329773 1.28613 0.291769C1.44397 0.424845 3.06318 2.08304 4.88867 3.98513C8.04991 7.29191 8.19727 7.46495 8.19727 7.82107C8.19723 8.10582 8.12887 8.26883 7.94238 8.45192C7.67742 8.70618 7.64758 8.70583 5.90039 8.70583H4.13281L2.58203 10.2937C1.09004 11.8298 1.0309 11.8801 0.716797 11.8191C0.540082 11.7784 0.304282 11.6566 0.196289 11.5447C1.30075e-05 11.3514 0 11.2084 0 5.949V0.545675L0.274414 0.301534ZM17.0332 0.0876672L17.9658 0.108175L17.9951 0.739034L18.0254 1.38064H17.3379C16.7096 1.38064 16.6109 1.41102 16.3262 1.67556C16.0319 1.95005 16.0021 2.02175 15.9727 2.74392L15.9336 3.50661L16.9453 3.53689L17.9658 3.56814L17.9951 4.14821L18.0254 4.72732L17.0137 4.75857L16.0029 4.78884L15.9531 8.2986L15.9043 11.8093H14.4316L14.4023 8.36013C14.3827 5.74523 14.3531 4.88016 14.2549 4.81911C14.1955 4.77845 13.8618 4.73806 13.5283 4.73806H12.9102V3.52712L13.627 3.49685L14.334 3.4656L14.3926 2.55056C14.4711 1.21767 14.7658 0.688424 15.6592 0.271261C16.0223 0.0983885 16.2677 0.06733 17.0332 0.0876672ZM34.7441 3.47634C35.8829 3.09991 37.1883 3.44573 37.7578 4.25954C38.3272 5.07349 38.3867 5.4908 38.3867 8.80739V11.8093H36.9141L36.8545 9.0115C36.7858 6.2745 36.737 5.77527 36.4229 5.28689C36.0202 4.64623 34.8522 4.54472 34.165 5.08376C33.4484 5.65354 33.389 5.95899 33.3301 9.06228L33.2812 11.8093H31.8086L31.7598 8.85817C31.7205 6.3875 31.6812 5.84747 31.5439 5.532C31.328 5.03351 30.8565 4.73814 30.2676 4.73806C29.4625 4.73806 28.9816 5.04331 28.5889 5.80642C28.3827 6.18288 28.3723 6.3966 28.3232 9.0115L28.2744 11.8093H26.8018L26.7725 7.65798L26.7529 3.50661L27.46 3.53689L28.1758 3.56814L28.2256 4.17849L28.2744 4.78884L28.5 4.4529C29.0596 3.63895 29.8059 3.29268 30.8857 3.34353C31.4846 3.37405 31.7305 3.43511 32.1035 3.65896C32.3686 3.82176 32.673 4.12726 32.8301 4.38161L33.085 4.80935L33.625 4.22927C34.057 3.78158 34.2827 3.61878 34.7441 3.47634ZM45.583 8.55349C45.6321 7.65811 45.8278 7.71879 43.8643 8.00368C43.1477 8.09526 42.4111 8.2588 42.2246 8.35036C41.6556 8.63547 41.4204 9.41878 41.7246 10.0291C41.9603 10.4968 42.3922 10.6896 43.2461 10.6795C43.8646 10.6795 44.0612 10.6395 44.4932 10.3953C45.2392 9.96797 45.5241 9.48948 45.583 8.55349ZM56.9902 4.94118C56.4797 4.66662 55.6746 4.60614 55.1348 4.77907C54.3103 5.06405 53.8291 5.75598 53.6426 6.96657C53.417 8.33991 53.8192 9.70342 54.6143 10.2732C54.948 10.5174 55.1645 10.5884 55.6553 10.6189C56.4701 10.6698 56.9221 10.5073 57.4326 9.97829C57.9824 9.40851 58.1885 8.75692 58.1885 7.6072C58.1787 6.24379 57.7855 5.35835 56.9902 4.94118ZM1.10938 1.58376C1.06029 1.58377 1.03125 3.55758 1.03125 5.95876C1.03125 10.0999 1.04111 10.3335 1.20801 10.242C1.29827 10.189 1.90608 9.58988 2.55273 8.9197L3.73047 7.68825H5.26172C6.09621 7.68825 6.82303 7.65766 6.8623 7.61696C6.92227 7.53688 1.24672 1.58376 1.10938 1.58376ZM66.8174 5.074C66.1989 4.64679 65.1687 4.51409 64.4717 4.76833C63.7747 5.03287 63.2246 5.73497 63.0381 6.58962L62.9795 6.87478H67.7109L67.6426 6.53884C67.5346 5.97923 67.1512 5.30801 66.8174 5.074ZM22.8252 1.43142C22.4816 0.352898 23.5723 -0.420777 24.4951 0.250753C24.8484 0.515377 24.9659 1.0854 24.7598 1.53298C24.3867 2.33666 23.0904 2.26559 22.8252 1.43142Z" fill="#05FE42"/>
</svg>
