<svg width="14" height="16" viewBox="0 0 14 16" fill="none" xmlns="http://www.w3.org/2000/svg">
<mask id="mask0_1_71" style="mask-type:alpha" maskUnits="userSpaceOnUse" x="0" y="0" width="14" height="16">
<rect width="14" height="16" fill="#D9D9D9"/>
</mask>
<g mask="url(#mask0_1_71)">
<path d="M66.0391 5.50661C66.8048 5.24207 68.2391 5.29276 69.0146 5.60818C70.2515 6.09663 71.0761 7.32856 71.2725 8.96657C71.3215 9.4341 71.3506 9.88119 71.3213 9.9529C71.282 10.0648 70.6734 10.0955 68.1211 10.0955C65.7658 10.0955 64.9801 10.1261 64.9795 10.2176C64.9795 10.2786 65.0484 10.5941 65.1367 10.9197C65.4509 12.0795 66.1967 12.6394 67.4141 12.6394C68.4545 12.6394 69.1026 12.3036 69.4658 11.5916C69.6033 11.2965 69.6135 11.2957 70.3105 11.367C70.703 11.4077 71.0465 11.4689 71.0859 11.5095C71.2037 11.6214 70.8009 12.4048 70.3887 12.8728C68.9455 14.4906 65.539 14.3383 64.2529 12.5984C64.1057 12.395 63.8699 11.9679 63.7227 11.6424C63.4772 11.1031 63.457 10.9703 63.457 9.68825C63.4571 8.06062 63.634 7.48047 64.3506 6.64626C64.8708 6.04605 65.2932 5.76095 66.0391 5.50661ZM50.7734 12.782C50.8618 11.8968 51.6473 11.4688 52.4131 11.8758C52.7763 12.069 52.9033 12.3136 52.9033 12.8426C52.9033 13.3715 52.7762 13.616 52.4131 13.8093C51.9124 14.0739 51.4601 14.0132 51.0674 13.6062C50.7435 13.2706 50.7244 13.2091 50.7734 12.782ZM61.7393 13.8699L61.0322 13.8396L60.3154 13.8093L60.2861 13.3006C60.2469 12.4968 60.198 12.4566 59.8643 12.9246C59.6679 13.2093 59.3634 13.4532 58.9414 13.6668C58.3425 13.972 58.2636 13.9819 57.3506 13.9412C56.5165 13.9107 56.3197 13.8605 55.8682 13.6062C54.5135 12.8431 53.9048 11.4179 54.0029 9.25075C54.0913 7.43982 54.6908 6.33077 55.918 5.69997C56.5362 5.38469 56.6447 5.36404 57.5674 5.36404C58.7059 5.37425 59.1676 5.55756 59.8057 6.25954L60.1689 6.66677V4.47927C60.1689 3.27865 60.198 2.26077 60.2373 2.23025C60.2674 2.18963 60.6205 2.15897 61.0225 2.15896H61.7393V13.8699ZM44.5098 5.44607C45.1381 5.28327 46.8173 5.33396 47.3867 5.54763C48.054 5.79181 48.5346 6.1988 48.8389 6.76833L49.124 7.29763L49.1924 10.2986C49.2317 11.9469 49.2812 13.413 49.291 13.5554C49.3204 13.7992 49.2998 13.8091 48.6621 13.8396C47.9262 13.8701 47.8776 13.8291 47.75 13.0662C47.7108 12.8327 47.6515 12.6402 47.6025 12.6394C47.5633 12.6394 47.4158 12.7922 47.2783 12.9754C47.1506 13.1585 46.7973 13.4435 46.5127 13.6062C46.0121 13.9012 45.9235 13.9109 44.8047 13.9109C43.7837 13.9109 43.577 13.8806 43.2334 13.6873C41.4958 12.7207 41.4959 10.3097 43.2334 9.40407C43.7243 9.14971 44.4019 9.00705 45.7861 8.87478C46.385 8.81373 47.033 8.71178 47.249 8.66091L47.6221 8.55935L47.583 8.05056C47.5241 7.47071 47.2785 7.06349 46.8564 6.83962C46.4835 6.64634 45.2565 6.58556 44.8145 6.73806C44.3629 6.89067 43.9107 7.35843 43.8223 7.7654C43.7634 8.02974 43.7244 8.07098 43.499 8.02029C43.3518 7.98976 42.9975 7.93851 42.7227 7.90798C42.2223 7.8368 42.2028 7.82636 42.2617 7.57204C42.5072 6.53435 43.3122 5.77165 44.5098 5.44607ZM26.5928 13.8699L25.8369 13.8396L25.0713 13.8093L25.042 9.65798L25.0225 5.51736H26.5928V13.8699ZM79.1855 5.51736C79.6272 5.51737 80 5.53762 80 5.56814C79.9948 5.70329 76.937 13.6063 76.8389 13.7283C76.7006 13.9112 75.1511 13.9112 75.0225 13.7283C74.9439 13.6367 72.2738 6.76947 71.8906 5.69021C71.8317 5.52744 71.9006 5.50639 72.6855 5.53689L73.54 5.56814L74.708 8.80349C75.3461 10.5942 75.8866 12.0698 75.916 12.1004C75.9747 12.1611 75.9856 12.1275 76.6621 10.2478C76.9174 9.51526 77.4084 8.16266 77.7422 7.21657L78.3604 5.51736H79.1855ZM10.9736 12.8631L13.9775 12.8933L14.0654 13.1687C14.1439 13.3924 14.1247 13.4943 13.9775 13.657C13.8107 13.8503 13.6918 13.8601 10.9629 13.8601C9.19601 13.8601 8.04749 13.8196 7.92969 13.7586C7.71371 13.6365 7.6748 13.1579 7.86133 12.9646C7.95084 12.8732 8.72744 12.8427 10.9736 12.8631ZM22.9111 2.68825C22.9406 2.98332 22.9601 5.60842 22.9404 8.51833L22.9111 13.8093L22.1846 13.8396C21.6938 13.86 21.429 13.8292 21.3799 13.7478C21.2916 13.5826 21.2623 2.78968 21.3506 2.42361C21.4094 2.16951 21.439 2.15896 22.126 2.15896H22.8525L22.9111 2.68825ZM2.27441 2.30154C2.61803 1.99629 2.91307 1.9967 3.28613 2.29177C3.44398 2.42485 5.06318 4.08305 6.88867 5.98513C10.0499 9.29191 10.1973 9.46495 10.1973 9.82107C10.1972 10.1058 10.1289 10.2688 9.94238 10.4519C9.67742 10.7062 9.64758 10.7058 7.90039 10.7058H6.13281L4.58203 12.2937C3.09004 13.8298 3.0309 13.8801 2.7168 13.8191C2.54008 13.7784 2.30428 13.6566 2.19629 13.5447C2.00001 13.3514 2 13.2084 2 7.949V2.54568L2.27441 2.30154ZM19.0332 2.08767L19.9658 2.10818L19.9951 2.73904L20.0254 3.38064H19.3379C18.7096 3.38064 18.6109 3.41102 18.3262 3.67556C18.0319 3.95005 18.0021 4.02175 17.9727 4.74392L17.9336 5.50661L18.9453 5.53689L19.9658 5.56814L19.9951 6.14822L20.0254 6.72732L19.0137 6.75857L18.0029 6.78884L17.9531 10.2986L17.9043 13.8093H16.4316L16.4023 10.3601C16.3827 7.74523 16.3531 6.88016 16.2549 6.81911C16.1955 6.77845 15.8618 6.73806 15.5283 6.73806H14.9102V5.52712L15.627 5.49685L16.334 5.4656L16.3926 4.55056C16.4711 3.21767 16.7658 2.68843 17.6592 2.27126C18.0223 2.09839 18.2677 2.06733 19.0332 2.08767ZM36.7441 5.47634C37.8829 5.09991 39.1883 5.44573 39.7578 6.25954C40.3272 7.07349 40.3867 7.4908 40.3867 10.8074V13.8093H38.9141L38.8545 11.0115C38.7858 8.2745 38.737 7.77527 38.4229 7.28689C38.0202 6.64623 36.8522 6.54472 36.165 7.08376C35.4484 7.65355 35.389 7.95899 35.3301 11.0623L35.2812 13.8093H33.8086L33.7598 10.8582C33.7205 8.3875 33.6812 7.84747 33.5439 7.532C33.328 7.03351 32.8565 6.73814 32.2676 6.73806C31.4625 6.73806 30.9816 7.04332 30.5889 7.80642C30.3827 8.18288 30.3723 8.3966 30.3232 11.0115L30.2744 13.8093H28.8018L28.7725 9.65798L28.7529 5.50661L29.46 5.53689L30.1758 5.56814L30.2256 6.17849L30.2744 6.78884L30.5 6.4529C31.0596 5.63896 31.8059 5.29268 32.8857 5.34353C33.4846 5.37405 33.7305 5.43511 34.1035 5.65896C34.3686 5.82176 34.673 6.12726 34.8301 6.38161L35.085 6.80935L35.625 6.22927C36.057 5.78158 36.2827 5.61879 36.7441 5.47634ZM47.583 10.5535C47.6321 9.65811 47.8278 9.71879 45.8643 10.0037C45.1477 10.0953 44.4111 10.2588 44.2246 10.3504C43.6556 10.6355 43.4204 11.4188 43.7246 12.0291C43.9603 12.4968 44.3922 12.6896 45.2461 12.6795C45.8646 12.6795 46.0612 12.6395 46.4932 12.3953C47.2392 11.968 47.5241 11.4895 47.583 10.5535ZM58.9902 6.94118C58.4797 6.66662 57.6746 6.60614 57.1348 6.77907C56.3103 7.06405 55.8291 7.75598 55.6426 8.96657C55.417 10.3399 55.8192 11.7034 56.6143 12.2732C56.948 12.5174 57.1645 12.5884 57.6553 12.6189C58.4701 12.6698 58.9221 12.5073 59.4326 11.9783C59.9824 11.4085 60.1885 10.7569 60.1885 9.6072C60.1787 8.24379 59.7855 7.35835 58.9902 6.94118ZM3.10938 3.58376C3.06029 3.58376 3.03125 5.55758 3.03125 7.95876C3.03125 12.0999 3.04111 12.3335 3.20801 12.242C3.29827 12.189 3.90608 11.5899 4.55273 10.9197L5.73047 9.68825H7.26172C8.09621 9.68825 8.82303 9.65766 8.8623 9.61697C8.92224 9.53686 3.24673 3.58378 3.10938 3.58376ZM68.8174 7.074C68.1989 6.64679 67.1687 6.51409 66.4717 6.76833C65.7747 7.03287 65.2246 7.73497 65.0381 8.58962L64.9795 8.87478H69.7109L69.6426 8.53884C69.5346 7.97923 69.1512 7.30801 68.8174 7.074ZM24.8252 3.43142C24.4816 2.3529 25.5723 1.57922 26.4951 2.25075C26.8484 2.51538 26.9659 3.0854 26.7598 3.53298C26.3867 4.33666 25.0904 4.26559 24.8252 3.43142Z" fill="#05FE42"/>
</g>
</svg>
